{"title":"Simon Schama's Power of Art 2006 DVDRip Legendado PT-BR","uid":15757245,"size":8811403523,"categoryP":"video","categoryS":"tv_shows","magnet":"?xt=urn:btih:b26348f3b4303676e9360c476fb7fabe8b342228&amp;dn=Simon+Schama%27s+Power+of+Art+2006+DVDRip+Legendado+PT-BR&amp;tr=udp%3A%2F%2Ftracker.leechers-paradise.org%3A6969&amp;tr=udp%3A%2F%2Fzer0day.ch%3A1337&amp;tr=udp%3A%2F%2Fopen.demonii.com%3A1337&amp;tr=udp%3A%2F%2Ftracker.coppersurfer.tk%3A6969&amp;tr=udp%3A%2F%2Fexodus.desync.com%3A6969","seeders":6,"leechers":5,"uploader":null,"files":8,"time":1473072052,"description":"Audio: English\r\nLegendas/subtitles: Português (MKV track)\r\n\r\n============================================\r\nID                             : 1\r\nFormat                         : AVC\r\nFormat/Info                    : Advanced Video Codec\r\nFormat profile                 :   \r\nFormat settings, CABAC         : Yes\r\nFormat settings, ReFrames      : 4 frames\r\nCodec ID                       : V_MPEG4/ISO/AVC\r\nDuration                       : 59mn 24s\r\nBit rate                       : 2 300 Kbps\r\nWidth                          : 720 pixels\r\nHeight                         : 576 pixels\r\nDisplay aspect ratio           : 1.85:1\r\nFrame rate mode                : Constant\r\nFrame rate                     : 25.000 fps\r\nStandard                       : PAL\r\nColor space                    : YUV\r\nChroma subsampling             : 4:2:0\r\nBit depth                      : 8 bits\r\nScan type                      : Progressive\r\nBits/(Pixel*Frame)             : 0.222\r\nStream size                    : 957 MiB (90%)\r\n\r\n\r\nAudio\r\nID                             : 2\r\nFormat                         : AC-3\r\nFormat/Info                    : Audio Coding 3\r\nMode extension                 : CM (complete main)\r\nFormat settings, Endianness    : Big\r\nCodec ID                       : A_AC3\r\nDuration                       : 59mn 24s\r\nBit rate mode                  : Constant\r\nBit rate                       : 192 Kbps\r\nChannel(s)                     : 2 channels\r\nChannel positions              : Front: L R\r\nSampling rate                  : 48.0 KHz\r\nBit depth                      : 16 bits\r\nCompression mode               : Lossy\r\nStream size                    : 81.6 MiB (8%)\r\nLanguage                       : English\r\nDefault                        : Yes\r\nForced                         : No\r\n\r\nText\r\nID                             : 3\r\nFormat                         : UTF-8\r\nCodec ID                       : S_TEXT/UTF8\r\nCodec ID/Info                  : UTF-8 Plain Text\r\nDefault                        : Yes\r\nForced                         : No","torrent":{"xt":"urn:btih:b26348f3b4303676e9360c476fb7fabe8b342228","amp;dn":"Simon+Schama%27s+Power+of+Art+2006+DVDRip+Legendado+PT-BR","amp;tr":["udp%3A%2F%2Ftracker.leechers-paradise.org%3A6969","udp%3A%2F%2Fzer0day.ch%3A1337","udp%3A%2F%2Fopen.demonii.com%3A1337","udp%3A%2F%2Ftracker.coppersurfer.tk%3A6969","udp%3A%2F%2Fexodus.desync.com%3A6969"],"infoHash":"b26348f3b4303676e9360c476fb7fabe8b342228","infoHashBuffer":{"type":"Buffer","data":[178,99,72,243,180,48,54,118,233,54,12,71,111,183,250,190,139,52,34,40]},"announce":[],"urlList":[]}}